<?xml version="1.0" encoding="UTF-8" standalone="no"?>
<!-- Created with Inkscape (http://www.inkscape.org/) -->

<svg
   version="1.1"
   id="svg2"
   width="3658.6667"
   height="2325.3333"
   viewBox="0 0 3658.6667 2325.3333"
   sodipodi:docname="NCS Logo - Down Side.ai"
   xmlns:inkscape="http://www.inkscape.org/namespaces/inkscape"
   xmlns:sodipodi="http://sodipodi.sourceforge.net/DTD/sodipodi-0.dtd"
   xmlns="http://www.w3.org/2000/svg"
   xmlns:svg="http://www.w3.org/2000/svg">
  <defs
     id="defs6">
    <clipPath
       clipPathUnits="userSpaceOnUse"
       id="clipPath16">
      <path
         d="M 0,1744 H 2744 V 0 H 0 Z"
         id="path14" />
    </clipPath>
    <clipPath
       clipPathUnits="userSpaceOnUse"
       id="clipPath32">
      <path
         d="M 0,1744 H 2744 V 0 H 0 Z"
         id="path30" />
    </clipPath>
  </defs>
  <sodipodi:namedview
     id="namedview4"
     pagecolor="#ffffff"
     bordercolor="#000000"
     borderopacity="0.25"
     inkscape:showpageshadow="2"
     inkscape:pageopacity="0.0"
     inkscape:pagecheckerboard="0"
     inkscape:deskcolor="#d1d1d1" />
  <g
     id="g8"
     inkscape:groupmode="layer"
     inkscape:label="NCS Logo - Down Side"
     transform="matrix(1.3333333,0,0,-1.3333333,0,2325.3333)">
    <g
       id="g10">
      <g
         id="g12"
         clip-path="url(#clipPath16)">
        <g
           id="g18"
           transform="translate(1121.3101,854.709)">
          <path
             d="m 0,0 c -0.588,25.783 -1.743,48.733 2.192,68.873 3.856,19.743 11.911,36.444 21.914,50.403 19.86,27.714 48.856,48.289 86.092,58.542 19.264,5.305 40.567,6.498 62.926,7.514 22.141,1.006 45.442,0.939 68.873,0.939 46.617,0 95.978,0.838 141.504,0 0.594,-0.902 -0.864,-1.537 -1.252,-1.878 -22.687,-19.936 -44.773,-42.802 -49.464,-81.082 -25.775,-0.413 -52.665,-1.566 -79.83,-1.566 -26.636,0 -54.679,1.151 -79.518,-1.253 C 160.35,99.227 149.066,97.801 139.313,93.918 120.679,86.5 106.68,72.453 98.615,53.221 94.833,44.203 90.5,32.084 92.353,19.723 c 3.483,-23.237 14.865,-40.486 28.489,-52.909 7.435,-6.779 15.464,-11.886 25.045,-15.652 9.651,-3.791 20.86,-5.45 33.184,-7.2 46.157,-6.554 102.175,-4.819 155.593,-3.757 3.566,-8.265 6.351,-16.551 10.017,-24.42 9.845,-21.125 22.823,-40.348 40.073,-54.473 1.421,-1.164 3.518,-1.736 4.069,-3.755 -53.827,-0.278 -111.732,0.172 -164.044,0.627 -55.441,0.48 -107.436,-0.735 -144.009,20.347 -3.132,-2.338 -5.528,-5.347 -8.139,-7.826 -7.965,-7.56 -19.219,-12.858 -34.124,-12.836 -19.072,0.029 -32.457,8.209 -44.142,18.471 -67.135,58.961 -133.665,121.577 -200.986,178.758 -0.395,-63.261 0.806,-128.114 -0.626,-190.34 h -91.414 v 239.178 c 0,16.228 -0.741,32.99 1.252,46.646 4.143,28.396 22.537,44.288 50.09,46.334 17.613,1.307 30.909,-5.682 41.011,-14.088 10.482,-8.723 20.135,-17.721 29.428,-26.297 39.156,-36.135 78.361,-69.67 117.398,-105.502 9.689,-8.894 19.617,-17.599 29.428,-26.298 C -20.316,16.1 -11.137,6.721 0,0"
             style="fill:#3781c2;fill-opacity:1;fill-rule:evenodd;stroke:none"
             id="path20" />
        </g>
        <g
           id="g22"
           transform="translate(1490.4111,795.5391)">
          <path
             d="m 0,0 h 257.023 c 25.158,0 64.171,-3.945 72.004,13.775 5.908,13.368 -0.187,28.793 -10.957,32.559 -5.817,2.033 -13.459,1.878 -21.601,1.878 -53.825,0 -106.376,1.253 -159.975,1.253 -30.074,0 -60.124,0.759 -83.588,8.139 -34.377,10.815 -55.737,37.729 -59.169,80.144 -1.197,14.805 1.398,29.051 5.636,40.072 8.206,21.339 23.328,39.559 43.202,49.778 21.443,11.023 47.401,13.129 77.64,14.713 14.317,0.75 29.254,1.252 44.454,1.252 15.208,0 30.807,0.41 46.02,0.314 34.69,-0.219 72.306,0.312 104.25,0.312 h 90.163 c 4.051,0 10.975,0.826 12.835,0 1.25,-0.554 0.484,-0.546 -0.625,-2.191 -9.144,-13.549 -20.809,-26.852 -30.368,-39.445 -8.052,-10.61 -15.774,-20.788 -24.419,-31.62 -2.632,-3.298 -5.736,-8.218 -9.079,-9.392 -7.134,-2.507 -20.458,-1.252 -30.367,-1.252 -63.475,0 -125.158,-0.313 -189.402,-0.313 -23.237,0 -46.797,-2.095 -41.951,-29.115 2.986,-16.648 20.732,-16.74 40.699,-17.218 63.66,-1.526 131.635,1.457 193.159,-2.505 18.433,-1.187 34.718,-2.763 48.524,-7.513 27.352,-9.413 46.377,-28.275 52.594,-59.482 3.156,-15.841 3.257,-34.426 -0.625,-50.403 -10.933,-44.98 -46.754,-65.164 -94.857,-73.57 -16.139,-2.819 -33.782,-2.505 -52.908,-2.505 -64.347,0.003 -138.97,0.418 -207.874,0 -3.941,-0.022 -8.859,-0.761 -13.148,0 -3.179,0.564 -6.843,5.407 -9.393,8.14 C 27.824,-52.676 11.356,-29.122 0,0"
             style="fill:#3781c2;fill-opacity:1;fill-rule:evenodd;stroke:none"
             id="path24" />
        </g>
      </g>
    </g>
    <g
       id="g26">
      <g
         id="g28"
         clip-path="url(#clipPath32)">
        <g
           id="g34"
           transform="translate(828.981,673.9863)">
          <path
             d="M 0,0 V -19.006 H -4.323 V 4.572 c 0,0.833 0.208,1.494 0.625,1.983 0.417,0.488 0.983,0.732 1.697,0.732 0.334,0 0.655,-0.071 0.965,-0.214 0.309,-0.143 0.631,-0.382 0.964,-0.715 L 18.255,-11.825 V 7.18 h 4.323 v -23.792 c 0,-0.858 -0.209,-1.525 -0.625,-2.001 -0.417,-0.476 -0.959,-0.714 -1.626,-0.714 -0.739,0 -1.429,0.321 -2.072,0.964 z"
             style="fill:#666666;fill-opacity:1;fill-rule:nonzero;stroke:none"
             id="path36" />
        </g>
        <path
           d="m 874.278,670.092 h 14.397 v -3.822 h -14.397 z m -7.823,-15.112 v 25.972 h 23.185 v -4.537 h -18.684 v -16.897 h 18.72 v -4.538 z"
           style="fill:#666666;fill-opacity:1;fill-rule:nonzero;stroke:none"
           id="path38" />
        <g
           id="g40"
           transform="translate(912.395,654.9805)">
          <path
             d="m 0,0 v 21.435 h -9.86 v 4.537 H 14.397 V 21.435 H 4.537 L 4.537,0 Z"
             style="fill:#666666;fill-opacity:1;fill-rule:nonzero;stroke:none"
             id="path42" />
        </g>
        <g
           id="g44"
           transform="translate(960.6938,663.6611)">
          <path
             d="m 0,0 -4.037,-7.609 c -0.262,-0.477 -0.596,-0.834 -1,-1.072 -0.405,-0.237 -0.846,-0.357 -1.322,-0.357 -1.048,0 -1.834,0.476 -2.358,1.429 l -13.432,24.9 h 5.43 l 10.503,-19.97 3.929,7.074 -6.752,12.896 h 5.466 l 10.039,-19.97 10.575,19.97 h 5.072 L 8.681,-7.609 C 8.418,-8.086 8.079,-8.443 7.663,-8.681 7.246,-8.918 6.799,-9.038 6.323,-9.038 c -0.477,0 -0.917,0.12 -1.322,0.357 -0.405,0.238 -0.738,0.595 -1,1.072 z"
             style="fill:#666666;fill-opacity:1;fill-rule:nonzero;stroke:none"
             id="path46" />
        </g>
        <g
           id="g48"
           transform="translate(1014.2798,659.5176)">
          <path
             d="m 0,0 c 1.19,0 2.286,0.214 3.287,0.643 1,0.428 1.863,1.018 2.589,1.768 0.727,0.75 1.292,1.65 1.697,2.697 0.405,1.048 0.608,2.18 0.608,3.394 0,1.215 -0.203,2.34 -0.608,3.376 C 7.168,12.914 6.603,13.801 5.876,14.54 5.15,15.277 4.287,15.855 3.287,16.272 2.286,16.688 1.19,16.897 0,16.897 h -6.323 c -1.168,0 -2.245,-0.209 -3.234,-0.625 -0.988,-0.417 -1.839,-0.995 -2.554,-1.732 -0.714,-0.739 -1.274,-1.62 -1.679,-2.644 -0.405,-1.024 -0.607,-2.156 -0.607,-3.394 0,-1.214 0.202,-2.346 0.607,-3.394 0.405,-1.047 0.965,-1.947 1.679,-2.697 0.715,-0.75 1.566,-1.34 2.554,-1.768 C -8.568,0.214 -7.491,0 -6.323,0 Z m -6.323,-4.537 c -1.811,0 -3.484,0.34 -5.02,1.018 -1.536,0.679 -2.87,1.608 -4.001,2.787 -1.131,1.178 -2.013,2.578 -2.643,4.197 -0.632,1.62 -0.947,3.37 -0.947,5.252 0,1.905 0.315,3.643 0.947,5.216 0.63,1.571 1.512,2.911 2.643,4.018 1.131,1.108 2.465,1.965 4.001,2.572 1.536,0.608 3.209,0.912 5.02,0.912 H 0 c 1.881,0 3.602,-0.31 5.162,-0.929 1.56,-0.62 2.899,-1.489 4.019,-2.609 1.119,-1.119 1.988,-2.459 2.608,-4.018 0.619,-1.561 0.929,-3.281 0.929,-5.162 0,-1.882 -0.316,-3.632 -0.947,-5.252 C 11.14,1.846 10.258,0.446 9.127,-0.732 7.996,-1.911 6.656,-2.84 5.108,-3.519 3.56,-4.197 1.857,-4.537 0,-4.537 Z"
             style="fill:#666666;fill-opacity:1;fill-rule:nonzero;stroke:none"
             id="path50" />
        </g>
        <g
           id="g52"
           transform="translate(1065.293,654.9805)">
          <path
             d="m 0,0 -6.573,7.217 h -9.718 v 4.001 h 10.825 c 1.643,0 2.882,0.446 3.716,1.339 0.833,0.893 1.25,2.185 1.25,3.877 0,1.69 -0.435,2.947 -1.304,3.768 -0.87,0.821 -2.09,1.233 -3.662,1.233 H -19.613 V 0 h -4.501 v 25.972 h 18.648 c 1.476,0 2.798,-0.221 3.966,-0.661 1.166,-0.441 2.155,-1.072 2.964,-1.894 0.81,-0.821 1.43,-1.816 1.858,-2.982 0.429,-1.167 0.643,-2.478 0.643,-3.93 0,-2.168 -0.47,-3.984 -1.411,-5.448 C 1.613,9.592 0.297,8.538 -1.394,7.896 L 6.43,0 Z"
             style="fill:#666666;fill-opacity:1;fill-rule:nonzero;stroke:none"
             id="path54" />
        </g>
        <g
           id="g56"
           transform="translate(1105.9819,654.9805)">
          <path
             d="m 0,0 -14.54,11.432 c -0.405,0.309 -0.661,0.613 -0.768,0.911 -0.107,0.298 -0.161,0.625 -0.161,0.982 0,0.404 0.072,0.762 0.215,1.071 0.143,0.31 0.452,0.644 0.929,1.001 L -0.571,25.972 H 6.395 L -10.61,13.289 6.931,0 Z m -21.399,25.972 h 4.537 V 0 h -4.537 z"
             style="fill:#666666;fill-opacity:1;fill-rule:nonzero;stroke:none"
             id="path58" />
        </g>
        <g
           id="g60"
           transform="translate(1159.21,654.9805)">
          <path
             d="m 0,0 c -1.811,0 -3.483,0.34 -5.02,1.019 -1.536,0.678 -2.87,1.607 -4.001,2.786 -1.131,1.178 -2.013,2.578 -2.643,4.197 -0.631,1.62 -0.947,3.37 -0.947,5.252 0,1.905 0.316,3.643 0.947,5.216 0.63,1.571 1.512,2.911 2.643,4.018 1.131,1.108 2.465,1.965 4.001,2.573 1.537,0.607 3.209,0.911 5.02,0.911 H 14.075 V 21.435 H 0 c -1.167,0 -2.245,-0.209 -3.233,-0.625 -0.989,-0.417 -1.84,-0.996 -2.555,-1.733 -0.714,-0.739 -1.274,-1.62 -1.679,-2.643 -0.405,-1.025 -0.607,-2.157 -0.607,-3.395 0,-1.214 0.202,-2.346 0.607,-3.393 0.405,-1.048 0.965,-1.948 1.679,-2.698 0.715,-0.75 1.566,-1.34 2.555,-1.768 C -2.245,4.751 -1.167,4.537 0,4.537 H 14.075 V 0 Z"
             style="fill:#666666;fill-opacity:1;fill-rule:nonzero;stroke:none"
             id="path62" />
        </g>
        <g
           id="g64"
           transform="translate(1205.6509,659.5176)">
          <path
             d="m 0,0 c 1.19,0 2.286,0.214 3.287,0.643 1,0.428 1.863,1.018 2.589,1.768 0.727,0.75 1.292,1.65 1.697,2.697 0.405,1.048 0.608,2.18 0.608,3.394 0,1.215 -0.203,2.34 -0.608,3.376 C 7.168,12.914 6.603,13.801 5.876,14.54 5.15,15.277 4.287,15.855 3.287,16.272 2.286,16.688 1.19,16.897 0,16.897 h -6.323 c -1.168,0 -2.245,-0.209 -3.234,-0.625 -0.988,-0.417 -1.839,-0.995 -2.554,-1.732 -0.714,-0.739 -1.274,-1.62 -1.679,-2.644 -0.405,-1.024 -0.607,-2.156 -0.607,-3.394 0,-1.214 0.202,-2.346 0.607,-3.394 0.405,-1.047 0.965,-1.947 1.679,-2.697 0.715,-0.75 1.566,-1.34 2.554,-1.768 C -8.568,0.214 -7.491,0 -6.323,0 Z m -6.323,-4.537 c -1.811,0 -3.484,0.34 -5.02,1.018 -1.536,0.679 -2.87,1.608 -4.001,2.787 -1.131,1.178 -2.013,2.578 -2.643,4.197 -0.632,1.62 -0.947,3.37 -0.947,5.252 0,1.905 0.315,3.643 0.947,5.216 0.63,1.571 1.512,2.911 2.643,4.018 1.131,1.108 2.465,1.965 4.001,2.572 1.536,0.608 3.209,0.912 5.02,0.912 H 0 c 1.881,0 3.602,-0.31 5.162,-0.929 1.56,-0.62 2.899,-1.489 4.019,-2.609 1.119,-1.119 1.988,-2.459 2.608,-4.018 0.619,-1.561 0.929,-3.281 0.929,-5.162 0,-1.882 -0.316,-3.632 -0.947,-5.252 C 11.14,1.846 10.258,0.446 9.127,-0.732 7.996,-1.911 6.656,-2.84 5.108,-3.519 3.56,-4.197 1.857,-4.537 0,-4.537 Z"
             style="fill:#666666;fill-opacity:1;fill-rule:nonzero;stroke:none"
             id="path66" />
        </g>
        <g
           id="g68"
           transform="translate(1236.7656,673.9863)">
          <path
             d="M 0,0 V -19.006 H -4.323 V 4.572 c 0,0.833 0.208,1.494 0.625,1.983 0.417,0.488 0.983,0.732 1.697,0.732 0.334,0 0.655,-0.071 0.965,-0.214 0.309,-0.143 0.631,-0.382 0.964,-0.715 L 18.255,-11.825 V 7.18 h 4.323 v -23.792 c 0,-0.858 -0.209,-1.525 -0.625,-2.001 -0.417,-0.476 -0.959,-0.714 -1.626,-0.714 -0.739,0 -1.429,0.321 -2.072,0.964 z"
             style="fill:#666666;fill-opacity:1;fill-rule:nonzero;stroke:none"
             id="path70" />
        </g>
        <g
           id="g72"
           transform="translate(1274.2393,654.9805)">
          <path
             d="m 0,0 v 4.537 h 19.47 c 1.215,0 2.149,0.31 2.804,0.929 0.655,0.619 0.983,1.44 0.983,2.465 0,1.119 -0.328,1.959 -0.983,2.518 -0.655,0.56 -1.589,0.84 -2.804,0.84 H 7.538 c -1.215,0 -2.316,0.184 -3.305,0.554 -0.988,0.369 -1.821,0.881 -2.5,1.536 -0.679,0.654 -1.203,1.434 -1.572,2.34 -0.369,0.905 -0.554,1.893 -0.554,2.965 0,1.047 0.173,2.018 0.518,2.912 0.345,0.892 0.857,1.661 1.536,2.303 0.679,0.644 1.519,1.15 2.519,1.519 1,0.369 2.143,0.554 3.429,0.554 H 26.258 V 21.435 H 7.609 c -1.048,0 -1.857,-0.281 -2.429,-0.84 -0.572,-0.56 -0.857,-1.339 -0.857,-2.34 0,-1 0.291,-1.775 0.875,-2.322 0.583,-0.548 1.375,-0.822 2.376,-0.822 H 19.47 c 2.644,0 4.65,-0.619 6.02,-1.857 1.369,-1.239 2.053,-3.12 2.053,-5.645 0,-1.095 -0.166,-2.107 -0.5,-3.037 C 26.71,3.644 26.209,2.84 25.543,2.161 24.876,1.482 24.037,0.952 23.024,0.571 22.012,0.19 20.828,0 19.47,0 Z"
             style="fill:#666666;fill-opacity:1;fill-rule:nonzero;stroke:none"
             id="path74" />
        </g>
        <g
           id="g76"
           transform="translate(1339.3999,680.9521)">
          <path
             d="m 0,0 h 4.43 v -14.504 c 0,-2.001 -0.263,-3.746 -0.786,-5.233 -0.524,-1.49 -1.346,-2.722 -2.465,-3.699 -1.12,-0.976 -2.567,-1.703 -4.341,-2.178 -1.775,-0.477 -3.924,-0.715 -6.448,-0.715 -2.501,0 -4.639,0.238 -6.412,0.715 -1.775,0.475 -3.222,1.202 -4.341,2.178 -1.12,0.977 -1.942,2.209 -2.465,3.699 -0.524,1.487 -0.786,3.232 -0.786,5.233 V 0 h 4.68 v -14.504 c 0,-1.31 0.161,-2.43 0.482,-3.358 0.322,-0.929 0.845,-1.692 1.572,-2.286 0.726,-0.596 1.697,-1.031 2.912,-1.304 1.214,-0.275 2.715,-0.411 4.501,-0.411 1.786,0 3.286,0.136 4.501,0.411 1.215,0.273 2.185,0.708 2.912,1.304 0.726,0.594 1.25,1.357 1.572,2.286 0.321,0.928 0.482,2.048 0.482,3.358 z"
             style="fill:#666666;fill-opacity:1;fill-rule:nonzero;stroke:none"
             id="path78" />
        </g>
        <g
           id="g80"
           transform="translate(1358.4399,654.9805)">
          <path
             d="M 0,0 V 25.972 H 4.537 V 4.537 H 22.006 V 0 Z"
             style="fill:#666666;fill-opacity:1;fill-rule:nonzero;stroke:none"
             id="path82" />
        </g>
        <g
           id="g84"
           transform="translate(1402.5234,654.9805)">
          <path
             d="m 0,0 v 21.435 h -9.859 v 4.537 H 14.397 V 21.435 H 4.537 L 4.537,0 Z"
             style="fill:#666666;fill-opacity:1;fill-rule:nonzero;stroke:none"
             id="path86" />
        </g>
        <g
           id="g88"
           transform="translate(1457.5029,654.9805)">
          <path
             d="m 0,0 -3.895,6.537 h -12.289 l 2.144,3.68 h 7.967 L -11.861,19.935 -23.649,0 h -5.181 l 14.933,24.864 c 0.261,0.452 0.572,0.81 0.928,1.072 0.358,0.261 0.786,0.393 1.286,0.393 0.501,0 0.923,-0.132 1.269,-0.393 0.345,-0.262 0.648,-0.62 0.911,-1.072 L 5.466,0 Z"
             style="fill:#666666;fill-opacity:1;fill-rule:nonzero;stroke:none"
             id="path90" />
        </g>
        <g
           id="g92"
           transform="translate(1480.4727,673.9863)">
          <path
             d="M 0,0 V -19.006 H -4.322 V 4.572 c 0,0.833 0.208,1.494 0.625,1.983 0.416,0.488 0.982,0.732 1.697,0.732 0.333,0 0.654,-0.071 0.964,-0.214 0.309,-0.143 0.631,-0.382 0.965,-0.715 L 18.256,-11.825 V 7.18 h 4.322 v -23.792 c 0,-0.858 -0.209,-1.525 -0.625,-2.001 -0.417,-0.476 -0.959,-0.714 -1.626,-0.714 -0.738,0 -1.429,0.321 -2.071,0.964 z"
             style="fill:#666666;fill-opacity:1;fill-rule:nonzero;stroke:none"
             id="path94" />
        </g>
        <g
           id="g96"
           transform="translate(1529.8076,654.9805)">
          <path
             d="m 0,0 c -1.811,0 -3.483,0.34 -5.02,1.019 -1.536,0.678 -2.87,1.607 -4.001,2.786 -1.131,1.178 -2.012,2.578 -2.643,4.197 -0.632,1.62 -0.947,3.37 -0.947,5.252 0,1.905 0.315,3.643 0.947,5.216 0.631,1.571 1.512,2.911 2.643,4.018 1.131,1.108 2.465,1.965 4.001,2.573 1.537,0.607 3.209,0.911 5.02,0.911 H 14.075 V 21.435 H 0 c -1.167,0 -2.245,-0.209 -3.233,-0.625 -0.989,-0.417 -1.84,-0.996 -2.554,-1.733 -0.715,-0.739 -1.275,-1.62 -1.68,-2.643 -0.405,-1.025 -0.607,-2.157 -0.607,-3.395 0,-1.214 0.202,-2.346 0.607,-3.393 0.405,-1.048 0.965,-1.948 1.68,-2.698 0.714,-0.75 1.565,-1.34 2.554,-1.768 C -2.245,4.751 -1.167,4.537 0,4.537 H 14.075 V 0 Z"
             style="fill:#666666;fill-opacity:1;fill-rule:nonzero;stroke:none"
             id="path98" />
        </g>
        <g
           id="g100"
           transform="translate(1570.0684,654.9805)">
          <path
             d="m 0,0 v 9.86 l -13.789,16.112 h 6.108 L 2.43,14.004 12.575,25.972 h 5.787 L 4.537,9.86 V 0 Z"
             style="fill:#666666;fill-opacity:1;fill-rule:nonzero;stroke:none"
             id="path102" />
        </g>
        <g
           id="g104"
           transform="translate(1622.6553,654.9805)">
          <path
             d="m 0,0 v 4.537 h 19.47 c 1.215,0 2.148,0.31 2.803,0.929 0.656,0.619 0.983,1.44 0.983,2.465 0,1.119 -0.327,1.959 -0.983,2.518 -0.655,0.56 -1.588,0.84 -2.803,0.84 H 7.537 c -1.214,0 -2.316,0.184 -3.304,0.554 -0.989,0.369 -1.822,0.881 -2.501,1.536 -0.678,0.654 -1.203,1.434 -1.572,2.34 -0.369,0.905 -0.554,1.893 -0.554,2.965 0,1.047 0.173,2.018 0.519,2.912 0.345,0.892 0.857,1.661 1.536,2.303 0.679,0.644 1.518,1.15 2.519,1.519 1,0.369 2.143,0.554 3.429,0.554 H 26.257 V 21.435 H 7.609 c -1.048,0 -1.858,-0.281 -2.429,-0.84 -0.572,-0.56 -0.858,-1.339 -0.858,-2.34 0,-1 0.291,-1.775 0.875,-2.322 0.584,-0.548 1.376,-0.822 2.376,-0.822 H 19.47 c 2.643,0 4.649,-0.619 6.019,-1.857 1.369,-1.239 2.054,-3.12 2.054,-5.645 0,-1.095 -0.167,-2.107 -0.5,-3.037 C 26.709,3.644 26.209,2.84 25.543,2.161 24.876,1.482 24.036,0.952 23.024,0.571 22.012,0.19 20.827,0 19.47,0 Z"
             style="fill:#666666;fill-opacity:1;fill-rule:nonzero;stroke:none"
             id="path106" />
        </g>
        <path
           d="m 1672.419,670.092 h 14.397 v -3.822 h -14.397 z m -7.823,-15.112 v 25.972 h 23.184 v -4.537 h -18.683 v -16.897 h 18.719 v -4.538 z"
           style="fill:#666666;fill-opacity:1;fill-rule:nonzero;stroke:none"
           id="path108" />
        <g
           id="g110"
           transform="translate(1726.3262,654.9805)">
          <path
             d="m 0,0 -6.573,7.217 h -9.717 v 4.001 h 10.824 c 1.644,0 2.882,0.446 3.716,1.339 0.833,0.893 1.25,2.185 1.25,3.877 0,1.69 -0.435,2.947 -1.304,3.768 -0.87,0.821 -2.09,1.233 -3.662,1.233 H -19.612 V 0 h -4.501 v 25.972 h 18.647 c 1.477,0 2.799,-0.221 3.966,-0.661 1.167,-0.441 2.155,-1.072 2.965,-1.894 0.809,-0.821 1.429,-1.816 1.857,-2.982 0.429,-1.167 0.644,-2.478 0.644,-3.93 0,-2.168 -0.471,-3.984 -1.411,-5.448 C 1.613,9.592 0.298,8.538 -1.393,7.896 L 6.431,0 Z"
             style="fill:#666666;fill-opacity:1;fill-rule:nonzero;stroke:none"
             id="path112" />
        </g>
        <g
           id="g114"
           transform="translate(1743.8662,680.9521)">
          <path
             d="M 0,0 H 5.537 L 17.326,-20.006 29.08,0 h 5.216 L 19.327,-24.864 c -0.263,-0.453 -0.571,-0.81 -0.929,-1.072 -0.357,-0.261 -0.774,-0.393 -1.251,-0.393 -0.5,0 -0.928,0.132 -1.286,0.393 -0.356,0.262 -0.667,0.619 -0.928,1.072 z"
             style="fill:#666666;fill-opacity:1;fill-rule:nonzero;stroke:none"
             id="path116" />
        </g>
        <path
           d="m 1791.701,680.952 h 4.537 V 654.98 h -4.537 z"
           style="fill:#666666;fill-opacity:1;fill-rule:nonzero;stroke:none"
           id="path118" />
        <g
           id="g120"
           transform="translate(1823.3525,654.9805)">
          <path
             d="m 0,0 c -1.811,0 -3.483,0.34 -5.02,1.019 -1.536,0.678 -2.87,1.607 -4.001,2.786 -1.131,1.178 -2.012,2.578 -2.643,4.197 -0.632,1.62 -0.947,3.37 -0.947,5.252 0,1.905 0.315,3.643 0.947,5.216 0.631,1.571 1.512,2.911 2.643,4.018 1.131,1.108 2.465,1.965 4.001,2.573 1.537,0.607 3.209,0.911 5.02,0.911 H 14.075 V 21.435 H 0 c -1.167,0 -2.245,-0.209 -3.233,-0.625 -0.989,-0.417 -1.84,-0.996 -2.554,-1.733 -0.715,-0.739 -1.275,-1.62 -1.68,-2.643 -0.405,-1.025 -0.607,-2.157 -0.607,-3.395 0,-1.214 0.202,-2.346 0.607,-3.393 0.405,-1.048 0.965,-1.948 1.68,-2.698 0.714,-0.75 1.565,-1.34 2.554,-1.768 C -2.245,4.751 -1.167,4.537 0,4.537 H 14.075 V 0 Z"
             style="fill:#666666;fill-opacity:1;fill-rule:nonzero;stroke:none"
             id="path122" />
        </g>
        <path
           d="m 1859.434,670.092 h 14.397 v -3.822 h -14.397 z m -7.824,-15.112 v 25.972 h 23.185 v -4.537 h -18.684 v -16.897 h 18.72 v -4.538 z"
           style="fill:#666666;fill-opacity:1;fill-rule:nonzero;stroke:none"
           id="path124" />
        <g
           id="g126"
           transform="translate(1889.2275,654.9805)">
          <path
             d="m 0,0 v 4.537 h 19.47 c 1.215,0 2.148,0.31 2.803,0.929 0.656,0.619 0.983,1.44 0.983,2.465 0,1.119 -0.327,1.959 -0.983,2.518 -0.655,0.56 -1.588,0.84 -2.803,0.84 H 7.537 c -1.214,0 -2.316,0.184 -3.304,0.554 -0.989,0.369 -1.822,0.881 -2.501,1.536 -0.678,0.654 -1.203,1.434 -1.572,2.34 -0.369,0.905 -0.554,1.893 -0.554,2.965 0,1.047 0.173,2.018 0.519,2.912 0.345,0.892 0.857,1.661 1.536,2.303 0.679,0.644 1.518,1.15 2.519,1.519 1,0.369 2.143,0.554 3.429,0.554 H 26.257 V 21.435 H 7.609 c -1.048,0 -1.858,-0.281 -2.429,-0.84 -0.572,-0.56 -0.858,-1.339 -0.858,-2.34 0,-1 0.291,-1.775 0.875,-2.322 0.584,-0.548 1.376,-0.822 2.376,-0.822 H 19.47 c 2.643,0 4.649,-0.619 6.019,-1.857 1.369,-1.239 2.054,-3.12 2.054,-5.645 0,-1.095 -0.167,-2.107 -0.5,-3.037 C 26.709,3.644 26.209,2.84 25.543,2.161 24.876,1.482 24.036,0.952 23.024,0.571 22.012,0.19 20.827,0 19.47,0 Z"
             style="fill:#666666;fill-opacity:1;fill-rule:nonzero;stroke:none"
             id="path128" />
        </g>
      </g>
    </g>
  </g>
</svg>
